<?xml version="1.0" encoding="UTF-8" standalone="no"?>
<svg
   xmlns:dc="http://purl.org/dc/elements/1.1/"
   xmlns:cc="http://creativecommons.org/ns#"
   xmlns:rdf="http://www.w3.org/1999/02/22-rdf-syntax-ns#"
   xmlns:svg="http://www.w3.org/2000/svg"
   xmlns="http://www.w3.org/2000/svg"
   id="svg8"
   version="1.1"
   viewBox="0 0 270.33746 246.01453"
   height="246.01453mm"
   width="270.33746mm">
  <defs
     id="defs2" />
  <metadata
     id="metadata5">
    <rdf:RDF>
      <cc:Work
         rdf:about="">
        <dc:format>image/svg+xml</dc:format>
        <dc:type
           rdf:resource="http://purl.org/dc/dcmitype/StillImage" />
        <dc:title></dc:title>
      </cc:Work>
    </rdf:RDF>
  </metadata>
  <g
     transform="translate(211.43488,143.55386)"
     id="layer1">
    <g
       transform="translate(-35.067813,-104.14522)"
       id="layer1-9">
      <g
         transform="translate(1.3662195,3.9350582)"
         id="g847">
        <path
           id="path851"
           d="m -141.61328,201.28175 c -4.81305,-5.76121 -10.37282,-13.93391 -14.88845,-21.88559 -22.80118,-40.15122 -27.49075,-88.570578 -12.83933,-132.564929 5.87742,-17.64834 14.70132,-34.100358 26.18098,-48.8139983 1.2482,-1.5998348 2.47235,-3.1124153 2.72033,-3.361285 0.42125,-0.4227724 2.98339,-0.4527339 39.00427,-0.4561047 21.92688,-0.00212 38.654114,-0.1043199 38.786935,-0.2371407 0.128444,-0.1284446 2.318128,-6.4128353 4.865965,-13.9653143 2.793709,-8.281307 4.907563,-14.132053 5.325589,-14.740219 1.888731,-2.747817 10.037911,-5.863676 19.119499,-7.310386 5.332174,-0.849424 8.201689,-1.085431 15.213542,-1.251258 15.4803347,-0.366104 29.94718,1.852281 37.414593,5.737256 2.261782,1.176707 4.353576,2.989626 4.603353,3.989635 0.0875,0.350319 2.218322,6.709131 4.735158,14.130693 l 4.576064,13.4937493 29.302605,0.067302 c 24.111956,0.055377 29.302605,0.1293812 29.302605,0.4177665 0,0.3335205 -5.31667,7.395506 -7.90784,10.5037435 C 83.231446,5.8407884 64.644334,27.134018 42.597927,52.353978 20.55152,77.573939 2.5135506,98.424959 2.5135506,98.689582 c 0,0.264623 18.0379694,21.114828 40.0843764,46.333778 22.046407,25.21896 40.394335,46.27407 40.773192,46.78912 0.378831,0.51506 2.611253,3.061 4.960938,5.65763 2.349659,2.59664 4.272121,4.82907 4.272121,4.96094 0,0.14295 -47.056803,0.23978 -116.528504,0.23978 H -140.45283 Z m 69.691999,-54.04423 c 23.238609,-26.4831 42.260103,-48.30394 42.269985,-48.490765 0.02209,-0.417439 -84.278994,-96.6063775 -84.863504,-96.8306727 -1.04222,-0.3999336 -11.08332,11.8634957 -16.5203,20.1766077 -12.18101,18.624706 -19.35485,38.740709 -22.07946,61.912498 -0.67197,5.714923 -0.67197,23.653822 0,29.368752 3.06025,26.0263 11.92351,48.69237 26.9108,68.8192 4.67787,6.28203 10.91559,13.41016 11.61685,13.27511 0.22749,-0.0438 19.42702,-21.74764 42.665629,-48.23073 z M 8.7119816,38.236349 C 15.186688,36.874351 20.574962,32.957417 22.912394,27.913544 c 0.805509,-1.738175 1.536494,-4.893413 1.209448,-5.22046 -0.155797,-0.155797 -4.597292,1.603788 -11.854757,4.696495 -16.3902159,6.984547 -17.1348381,7.30764 -17.3943256,7.547416 -0.5951485,0.549937 2.6435104,2.596542 5.19724498,3.284294 1.84073012,0.495731 6.31984032,0.503537 8.64197722,0.01506 z M -29.501034,37.700608 c 2.112997,-0.445175 5.259317,-1.919772 5.357723,-2.511023 0.04854,-0.291661 -3.598857,-1.92046 -13.758334,-6.143979 -7.603413,-3.160909 -14.002983,-5.780283 -14.221264,-5.820833 -1.046623,-0.194435 -0.34163,3.987246 1.146754,6.802 2.056876,3.889854 6.922035,6.933565 12.611579,7.889975 1.661433,0.279287 7.146944,0.145521 8.863542,-0.21614 z"
           style="fill:#01fafa;stroke-width:0.264583" />
        <path
           id="path849"
           d="m -141.75728,201.12935 c -3.47658,-4.17752 -9.2998,-12.5265 -12.67316,-18.16998 -12.92862,-21.62902 -20.37717,-44.71848 -22.74667,-70.51145 -0.61854,-6.73313 -0.61854,-20.783544 0,-27.51667 2.52058,-27.43763 10.77475,-51.780388 25.31065,-74.644869 3.03606,-4.7756286 9.71161,-13.9090369 11.41725,-15.6209545 0.40889,-0.4103952 3.2808,-0.4421108 38.97863,-0.4304665 24.982013,0.00815 38.62896,-0.079163 38.798018,-0.2482215 0.143434,-0.1434332 2.345688,-6.4393605 4.893901,-13.9909485 2.771201,-8.212416 4.910748,-14.135423 5.323969,-14.738601 1.881159,-2.74591 10.03344,-5.86333 19.1172,-7.310386 5.332174,-0.849424 8.201689,-1.085431 15.213542,-1.251258 15.4803347,-0.366104 29.94718,1.852281 37.414593,5.737256 2.263814,1.177766 4.355155,2.991123 4.601234,3.989635 0.08633,0.350319 2.217155,6.709131 4.735155,14.130693 l 4.578186,13.4937493 29.302605,0.067302 c 23.992735,0.055105 29.302605,0.1302993 29.302605,0.4149619 0,0.3379814 -5.330613,7.403081 -8.044392,10.6618586 C 83.024462,6.0815169 64.439282,27.373074 42.465635,52.505569 20.294117,77.86438 2.5135506,98.418451 2.5135506,98.689582 c 0,0.271166 17.7777254,20.818458 39.9520844,46.176148 21.973647,25.12817 40.320385,46.1816 40.77052,46.7854 0.450109,0.6038 2.742063,3.22266 5.09323,5.81968 2.35114,2.59702 4.274793,4.82944 4.274793,4.96093 0,0.14203 -47.30871,0.23909 -116.539315,0.23909 H -140.47445 Z m 43.829242,-24.25786 c 58.650496,-66.88017 68.162421,-77.790671 68.162421,-78.184601 0,-0.241901 -5.837053,-7.097054 -12.971225,-15.233668 C -49.871017,75.316606 -68.843071,53.679175 -84.896962,35.370039 -100.95085,17.060905 -114.27623,2.0076534 -114.5089,1.9183671 c -0.96525,-0.3704008 -10.40984,10.9876929 -15.67551,18.8514269 -13.12032,19.593813 -21.08664,42.236198 -23.13259,65.748955 -0.52533,6.037186 -0.53048,18.269291 -0.0102,24.167371 2.32258,26.32871 11.60421,50.71204 27.32328,71.77974 4.57888,6.1369 10.72098,13.13571 11.41258,13.00442 0.23299,-0.0442 7.73146,-8.41368 16.663275,-18.59879 z m 138.673881,2.52319 c 0,-0.44504 -53.979737,-62.31656 -54.368011,-62.31656 -0.203112,0 -4.97959,5.29828 -10.614393,11.77396 -5.634802,6.47568 -17.730923,20.37744 -26.880268,30.8928 -9.149344,10.51536 -16.703241,19.29622 -16.786434,19.51302 -0.133694,0.3484 6.167083,0.39418 54.248922,0.39418 35.078219,0 54.400184,-0.0914 54.400184,-0.2574 z M 5.7837345,58.255046 C 16.379551,46.078366 28.520199,32.127033 32.762951,27.252085 c 4.242753,-4.874947 7.675357,-8.982604 7.628007,-9.128124 -0.122653,-0.376968 -108.443351,-0.365718 -108.569015,0.01127 -0.05058,0.151723 2.029728,2.711566 4.62289,5.688541 2.593166,2.976975 14.338245,16.485494 26.100179,30.018931 22.825454,26.263273 23.398382,26.907264 23.746672,26.692009 0.124812,-0.07714 8.8962365,-10.102992 19.4920505,-22.279672 z M 0.99410403,41.001504 C -3.1841643,40.298091 -7.1062737,37.892772 -8.6235401,35.103278 c -0.3579336,-0.658059 -0.3604154,-0.818441 -0.02069,-1.336916 0.2763493,-0.421764 5.0887578,-2.596062 16.9379693,-7.652758 9.1035638,-3.88498 16.8314428,-7.063602 17.1730618,-7.063602 0.341619,0 0.764,0.142875 0.938625,0.3175 0.454343,0.454343 0.402474,4.527574 -0.082,6.439932 -0.876395,3.45935 -3.336393,7.337594 -6.273906,9.890958 C 15.43434,39.710031 7.1000871,42.02945 0.99410943,41.001504 Z M 8.7377308,38.254002 C 14.555239,37.020663 19.889773,33.401793 22.33455,29.030125 c 1.091882,-1.952466 2.212808,-5.911524 1.792679,-6.331654 -0.17811,-0.178109 -5.012108,1.757506 -14.643942,5.863677 -7.9079383,3.371255 -14.4826756,6.233073 -14.6105276,6.359599 -0.5803609,0.574337 2.6181633,2.604963 5.19724498,3.299542 1.79242512,0.482722 6.46196922,0.500346 8.66772642,0.03271 z M -39.757916,40.34179 c -3.878964,-0.72947 -7.814464,-2.613507 -10.469214,-5.011912 -1.471226,-1.329166 -3.370638,-4.193284 -4.041003,-6.093418 -0.724373,-2.053222 -1.273468,-5.125698 -1.285129,-7.190996 -0.01024,-1.815695 0.377505,-2.466295 1.469914,-2.466295 0.750002,0 32.289167,13.10468 32.982835,13.704532 0.959713,0.829914 0.404278,2.503191 -1.360011,4.097121 -1.293257,1.168378 -2.491626,1.79587 -4.923843,2.578227 -2.409351,0.775004 -9.174874,0.984273 -12.373549,0.382741 z m 12.085719,-3.137236 c 2.1961,-0.752287 3.595122,-1.570167 3.595122,-2.101739 0,-0.283861 -27.494562,-11.951771 -28.163458,-11.951771 -0.411263,0 -0.487502,1.534609 -0.155654,3.133119 1.177975,5.67427 5.885342,9.850834 12.840986,11.393032 1.343306,0.297836 2.942323,0.387818 5.820834,0.327556 3.493857,-0.07314 4.219244,-0.168894 6.06217,-0.800197 z M 30.003149,-6.0988859 c 0.34857,-0.3279008 -8.662316,-26.8868311 -9.382075,-27.6529801 -0.31531,-0.335631 -1.363338,-1.021616 -2.328948,-1.524409 -10.8424319,-5.645651 -36.321435,-7.397796 -54.446399,-3.744181 -5.653058,1.139539 -12.371295,3.687926 -13.785956,5.229342 -0.592376,0.645453 -9.697276,27.3117361 -9.500431,27.8247076 0.141293,0.3682074 89.051548,0.2365163 89.443809,-0.1324795 z"
           style="fill:#030404;stroke-width:0.264583" />
      </g>
      <path
         transform="matrix(0.26458333,0,0,0.26458333,-183.62083,-46.037495)"
         id="path853"
         d="m 538.85538,326.34319 c -6.49764,-2.67126 -15.04764,-7.42003 -19,-10.55282 -8.17718,-6.48155 -18.1861,-24.50184 -18.1861,-32.74268 v -5.53001 l 28.63022,11.75976 c 47.63786,19.56709 73.64486,31.27976 73.71312,33.1979 0.15091,4.24069 -17.64617,8.60312 -35.34334,8.66339 -14.57683,0.0496 -20.24672,-0.86236 -29.8139,-4.79554 z"
         style="fill:#ffffff;stroke-width:2" />
      <path
         transform="matrix(0.26458333,0,0,0.26458333,-183.62083,-46.037495)"
         id="path855"
         d="m 691.83279,328.93171 c -4.86008,-2.55021 -8.77191,-5.51338 -8.69296,-6.58483 0.23949,-3.25058 106.52945,-48.16495 106.52945,-45.01558 0,0.99749 -1.86085,6.78717 -4.13521,12.86596 -5.30455,14.17767 -17.99917,26.94402 -35.22547,35.4245 -11.39052,5.60753 -15.76616,6.61396 -31.43585,7.23048 -15.98934,0.62909 -19.27828,0.15223 -27.03996,-3.92053 z"
         style="fill:#ffffff;stroke-width:2" />
    </g>
  </g>
</svg>
